<svg xmlns="http://www.w3.org/2000/svg" data-name="Layer 1" viewBox="0 0 400 400"><rect width="384.827" height="384.827" x="7.587" y="7.587" rx="53.338" ry="53.338"/><path d="M199.776 259.09c30.053 0 45.528-17.717 45.752-48.891v-25.792h-28.931v27.81c0 13.905-6.056 18.84-15.924 18.84-9.644 0-15.924-4.935-15.924-18.84V107.032c0-13.905 6.056-19.288 15.924-19.064 9.644 0 15.924 5.383 15.924 19.288v20.857h28.931v-18.839c0-31.174-15.475-48.892-45.528-48.892s-45.528 17.718-45.752 48.892v101.149c0 30.726 15.475 48.668 45.528 48.668Z" style="fill:#fff"/><path d="M154.248 287.574h91.28v51.584h-91.28z" style="fill:#fc5d0d"/></svg>